<svg version="1.1" id="Layer_1" xmlns="http://www.w3.org/2000/svg" xmlns:xlink="http://www.w3.org/1999/xlink" x="0px" y="0px"
	 width="100%" viewBox="0 0 1920 1080" enable-background="new 0 0 1920 1080" xml:space="preserve">
<path fill="#FFFFFF" opacity="1.000000" stroke="none" 
	d="
M1817.000000,1081.000000 
	C1211.333496,1081.000000 606.166870,1081.000000 1.000244,1081.000000 
	C1.000162,721.000183 1.000162,361.000336 1.000081,1.000389 
	C640.999695,1.000259 1280.999390,1.000259 1920.999268,1.000129 
	C1920.999512,360.999634 1920.999512,720.999268 1920.999756,1080.999512 
	C1886.500000,1081.000000 1852.000000,1081.000000 1817.000000,1081.000000 
M973.179749,435.061981 
	C939.763184,431.485168 910.682434,441.192139 886.558777,464.470856 
	C866.608215,483.722565 855.788635,507.556854 854.504883,535.357361 
	C853.674927,553.330933 856.140442,570.784363 865.033875,587.613464 
	C871.619202,601.712769 880.961304,613.654846 893.060669,623.441345 
	C918.122681,643.712708 946.717102,651.369263 978.422241,646.375183 
	C1003.641052,642.402649 1024.704590,630.325745 1041.438599,611.024231 
	C1063.096924,586.042603 1071.590942,556.790588 1066.456665,524.396240 
	C1061.260132,491.607849 1043.770996,466.234039 1015.186218,449.007507 
	C1002.560547,441.398743 988.944824,436.242065 973.179749,435.061981 
z"/>
<path fill="#CB6DE6" opacity="1.000000" stroke="none" 
	d="
M974.032654,435.204346 
	C988.944824,436.242065 1002.560547,441.398743 1015.186218,449.007507 
	C1043.770996,466.234039 1061.260132,491.607849 1066.456665,524.396240 
	C1071.590942,556.790588 1063.096924,586.042603 1041.438599,611.024231 
	C1024.704590,630.325745 1003.641052,642.402649 978.422241,646.375183 
	C946.717102,651.369263 918.122681,643.712708 893.060669,623.441345 
	C880.961304,613.654846 871.619202,601.712769 864.989929,586.815308 
	C864.274414,579.391479 865.934448,573.613037 871.978455,570.164734 
	C878.327332,566.542542 884.429138,568.196960 890.306885,572.416992 
	C891.734375,574.617859 893.061829,576.515381 894.188965,578.525269 
	C911.137146,608.747192 944.951355,622.965454 976.831177,615.828064 
	C1031.698853,603.544189 1055.376465,541.736206 1022.965698,496.055939 
	C1010.276672,478.171844 992.321411,468.540222 970.726685,464.600769 
	C961.595154,460.362915 957.896851,450.122620 963.459473,442.679749 
	C965.917419,439.390930 970.444763,437.648682 974.032654,435.204346 
z"/>
<path fill="#A7A7A7" opacity="1.000000" stroke="none" 
	d="
M973.606201,435.133179 
	C970.444763,437.648682 965.917419,439.390930 963.459473,442.679749 
	C957.896851,450.122620 961.595154,460.362915 970.304199,464.634766 
	C966.978271,464.635590 963.821228,464.029694 960.697388,464.168945 
	C935.740234,465.281219 914.766418,474.684143 899.615845,494.992035 
	C888.302185,510.157013 882.493042,527.315430 884.822205,546.408691 
	C885.880005,555.080566 888.307434,563.585327 890.113586,572.165894 
	C884.429138,568.196960 878.327332,566.542542 871.978455,570.164734 
	C865.934448,573.613037 864.274414,579.391479 864.940063,586.449402 
	C856.140442,570.784363 853.674927,553.330933 854.504883,535.357361 
	C855.788635,507.556854 866.608215,483.722565 886.558777,464.470856 
	C910.682434,441.192139 939.763184,431.485168 973.606201,435.133179 
z"/>
<path fill="#FFFFFF" opacity="1.000000" stroke="none" 
	d="
M890.306885,572.416992 
	C888.307434,563.585327 885.880005,555.080566 884.822205,546.408691 
	C882.493042,527.315430 888.302185,510.157013 899.615845,494.992035 
	C914.766418,474.684143 935.740234,465.281219 960.697388,464.168945 
	C963.821228,464.029694 966.978271,464.635590 970.542358,464.862244 
	C992.321411,468.540222 1010.276672,478.171844 1022.965698,496.055939 
	C1055.376465,541.736206 1031.698853,603.544189 976.831177,615.828064 
	C944.951355,622.965454 911.137146,608.747192 894.188965,578.525269 
	C893.061829,576.515381 891.734375,574.617859 890.306885,572.416992 
M967.992065,553.335144 
	C969.206909,549.752625 970.965332,546.253540 971.530518,542.571289 
	C972.983154,533.107422 966.541260,523.286438 958.113037,521.340881 
	C949.629944,519.382690 941.639648,524.320129 938.502869,533.458618 
	C935.303223,542.780212 938.647400,554.076355 945.862366,558.318176 
	C953.501770,562.809570 960.663025,561.356750 967.992065,553.335144 
M912.648682,546.119507 
	C910.332031,550.449707 908.015442,554.779907 905.618591,559.260010 
	C914.096924,560.960510 914.302612,560.833496 917.834290,554.189636 
	C921.889099,546.561462 926.168518,539.047729 930.023621,531.321350 
	C931.326843,528.709534 931.633606,525.600586 932.539001,522.177124 
	C922.430786,522.177124 913.552307,522.177124 904.448242,522.177124 
	C904.448242,524.518311 904.448242,526.551147 904.448242,529.135620 
	C910.312378,529.135620 915.835510,529.135620 922.054138,529.135620 
	C918.761353,535.063904 915.873413,540.263428 912.648682,546.119507 
M1007.601135,522.935242 
	C998.775635,535.075500 989.950134,547.215759 981.090210,559.403442 
	C985.407654,561.006165 987.942078,559.480774 989.935425,556.277039 
	C991.425415,553.882446 993.178650,551.650330 994.838440,549.363098 
	C1001.426575,540.284729 1008.023987,531.213074 1015.567383,520.832458 
	C1012.078613,521.553894 1010.084961,521.966125 1007.601135,522.935242 
M1018.145752,546.676514 
	C1014.795654,541.359680 1011.481018,539.809082 1006.673706,541.309875 
	C1002.573547,542.589966 999.795959,546.877014 1000.130249,551.409546 
	C1000.485840,556.231567 1003.376038,559.486694 1008.065063,560.346497 
	C1015.093445,561.635254 1019.727844,555.851074 1018.145752,546.676514 
M990.762024,539.529785 
	C995.749573,535.003662 996.817688,529.449341 993.537170,525.098633 
	C990.566406,521.158813 985.652710,520.037781 981.595093,522.374146 
	C977.274536,524.861877 975.439087,530.738647 977.517273,535.430664 
	C979.585693,540.100952 984.301331,541.779053 990.762024,539.529785 
z"/>
<path fill="#CB6DE6" opacity="1.000000" stroke="none" 
	d="
M967.768982,553.627136 
	C960.663025,561.356750 953.501770,562.809570 945.862366,558.318176 
	C938.647400,554.076355 935.303223,542.780212 938.502869,533.458618 
	C941.639648,524.320129 949.629944,519.382690 958.113037,521.340881 
	C966.541260,523.286438 972.983154,533.107422 971.530518,542.571289 
	C970.965332,546.253540 969.206909,549.752625 967.768982,553.627136 
M951.383972,529.414856 
	C945.661194,534.282593 944.246887,542.941589 948.156250,549.175842 
	C951.450012,554.428101 958.621277,554.446716 960.837585,548.694763 
	C962.286987,544.933228 962.497375,540.303101 961.929871,536.248596 
	C961.109253,530.385193 958.218384,528.766724 951.383972,529.414856 
z"/>
<path fill="#CB6DE6" opacity="1.000000" stroke="none" 
	d="
M912.817078,545.791199 
	C915.873413,540.263428 918.761353,535.063904 922.054138,529.135620 
	C915.835510,529.135620 910.312378,529.135620 904.448242,529.135620 
	C904.448242,526.551147 904.448242,524.518311 904.448242,522.177124 
	C913.552307,522.177124 922.430786,522.177124 932.539001,522.177124 
	C931.633606,525.600586 931.326843,528.709534 930.023621,531.321350 
	C926.168518,539.047729 921.889099,546.561462 917.834290,554.189636 
	C914.302612,560.833496 914.096924,560.960510 905.618591,559.260010 
	C908.015442,554.779907 910.332031,550.449707 912.817078,545.791199 
z"/>
<path fill="#CB6DE6" opacity="1.000000" stroke="none" 
	d="
M1007.846252,522.656799 
	C1010.084961,521.966125 1012.078613,521.553894 1015.567383,520.832458 
	C1008.023987,531.213074 1001.426575,540.284729 994.838440,549.363098 
	C993.178650,551.650330 991.425415,553.882446 989.935425,556.277039 
	C987.942078,559.480774 985.407654,561.006165 981.090210,559.403442 
	C989.950134,547.215759 998.775635,535.075500 1007.846252,522.656799 
z"/>
<path fill="#CB6DE6" opacity="1.000000" stroke="none" 
	d="
M1018.288513,547.042480 
	C1019.727844,555.851074 1015.093445,561.635254 1008.065063,560.346497 
	C1003.376038,559.486694 1000.485840,556.231567 1000.130249,551.409546 
	C999.795959,546.877014 1002.573547,542.589966 1006.673706,541.309875 
	C1011.481018,539.809082 1014.795654,541.359680 1018.288513,547.042480 
M1010.275513,546.121094 
	C1005.908875,546.238098 1005.440674,549.235962 1006.445923,552.277222 
	C1006.851379,553.503784 1009.855530,555.155884 1010.705811,554.719910 
	C1013.767029,553.150452 1013.546753,550.288330 1012.015991,547.521484 
	C1011.784973,547.104065 1011.341003,546.804382 1010.275513,546.121094 
z"/>
<path fill="#CB6DE6" opacity="1.000000" stroke="none" 
	d="
M990.425781,539.717224 
	C984.301331,541.779053 979.585693,540.100952 977.517273,535.430664 
	C975.439087,530.738647 977.274536,524.861877 981.595093,522.374146 
	C985.652710,520.037781 990.566406,521.158813 993.537170,525.098633 
	C996.817688,529.449341 995.749573,535.003662 990.425781,539.717224 
M988.346375,534.808411 
	C988.376648,532.488647 988.680115,530.112671 988.223755,527.892944 
	C988.123474,527.404968 984.239319,526.888245 983.967773,527.392334 
	C983.125793,528.955261 982.441223,531.358887 983.110901,532.759521 
	C983.732056,534.058716 986.172974,534.487854 988.346375,534.808411 
z"/>
<path fill="#FFFFFF" opacity="1.000000" stroke="none" 
	d="
M951.754272,529.267944 
	C958.218384,528.766724 961.109253,530.385193 961.929871,536.248596 
	C962.497375,540.303101 962.286987,544.933228 960.837585,548.694763 
	C958.621277,554.446716 951.450012,554.428101 948.156250,549.175842 
	C944.246887,542.941589 945.661194,534.282593 951.754272,529.267944 
z"/>
<path fill="#FFFFFF" opacity="1.000000" stroke="none" 
	d="
M1010.635559,546.285645 
	C1011.341003,546.804382 1011.784973,547.104065 1012.015991,547.521484 
	C1013.546753,550.288330 1013.767029,553.150452 1010.705811,554.719910 
	C1009.855530,555.155884 1006.851379,553.503784 1006.445923,552.277222 
	C1005.440674,549.235962 1005.908875,546.238098 1010.635559,546.285645 
z"/>
<path fill="#FFFFFF" opacity="1.000000" stroke="none" 
	d="
M988.079529,535.054260 
	C986.172974,534.487854 983.732056,534.058716 983.110901,532.759521 
	C982.441223,531.358887 983.125793,528.955261 983.967773,527.392334 
	C984.239319,526.888245 988.123474,527.404968 988.223755,527.892944 
	C988.680115,530.112671 988.376648,532.488647 988.079529,535.054260 
z"/>
</svg>